<svg xmlns="http://www.w3.org/2000/svg" viewBox="0 0 200 100" width="1200" height="600" role="img" aria-label="Palestine flag made of dots" preserveAspectRatio="xMidYMid meet">
  <title>Palestine flag made of dots</title>
  <style>
    @keyframes pulse {
      0% { opacity: 0.8; }
      50% { opacity: 1; }
      100% { opacity: 0.8; }
    }
    .red { animation: pulse 2.5s ease-in-out infinite; }
  </style>
  <!-- Dots grid (no patterns; compatible with GitHub SVG sanitization) -->
  <!-- Rows at y = 5,15,25,35,45,55,65,75,85 and columns x = 5..195 step 10 (9 rows total) -->

  <!-- y = 5 (black stripe; red at x=5) -->
  <circle cx="5" cy="5" r="2" class="red" fill="#CE1126"/>
  <circle cx="15" cy="5" r="2" fill="#000000"/>
  <circle cx="25" cy="5" r="2" fill="#000000"/>
  <circle cx="35" cy="5" r="2" fill="#000000"/>
  <circle cx="45" cy="5" r="2" fill="#000000"/>
  <circle cx="55" cy="5" r="2" fill="#000000"/>
  <circle cx="65" cy="5" r="2" fill="#000000"/>
  <circle cx="75" cy="5" r="2" fill="#000000"/>
  <circle cx="85" cy="5" r="2" fill="#000000"/>
  <circle cx="95" cy="5" r="2" fill="#000000"/>
  <circle cx="105" cy="5" r="2" fill="#000000"/>
  <circle cx="115" cy="5" r="2" fill="#000000"/>
  <circle cx="125" cy="5" r="2" fill="#000000"/>
  <circle cx="135" cy="5" r="2" fill="#000000"/>
  <circle cx="145" cy="5" r="2" fill="#000000"/>
  <circle cx="155" cy="5" r="2" fill="#000000"/>
  <circle cx="165" cy="5" r="2" fill="#000000"/>
  <circle cx="175" cy="5" r="2" fill="#000000"/>
  <circle cx="185" cy="5" r="2" fill="#000000"/>
  <circle cx="195" cy="5" r="2" fill="#000000"/>

  <!-- y = 15 (black stripe; red at x <= 30) -->
  <circle cx="5" cy="15" r="2" class="red" fill="#CE1126"/>
  <circle cx="15" cy="15" r="2" class="red" fill="#CE1126"/>
  <circle cx="25" cy="15" r="2" class="red" fill="#CE1126"/>
  <circle cx="35" cy="15" r="2" fill="#000000"/>
  <circle cx="45" cy="15" r="2" fill="#000000"/>
  <circle cx="55" cy="15" r="2" fill="#000000"/>
  <circle cx="65" cy="15" r="2" fill="#000000"/>
  <circle cx="75" cy="15" r="2" fill="#000000"/>
  <circle cx="85" cy="15" r="2" fill="#000000"/>
  <circle cx="95" cy="15" r="2" fill="#000000"/>
  <circle cx="105" cy="15" r="2" fill="#000000"/>
  <circle cx="115" cy="15" r="2" fill="#000000"/>
  <circle cx="125" cy="15" r="2" fill="#000000"/>
  <circle cx="135" cy="15" r="2" fill="#000000"/>
  <circle cx="145" cy="15" r="2" fill="#000000"/>
  <circle cx="155" cy="15" r="2" fill="#000000"/>
  <circle cx="165" cy="15" r="2" fill="#000000"/>
  <circle cx="175" cy="15" r="2" fill="#000000"/>
  <circle cx="185" cy="15" r="2" fill="#000000"/>
  <circle cx="195" cy="15" r="2" fill="#000000"/>

  <!-- y = 25 (black stripe; red at x <= 50) -->
  <circle cx="5" cy="25" r="2" class="red" fill="#CE1126"/>
  <circle cx="15" cy="25" r="2" class="red" fill="#CE1126"/>
  <circle cx="25" cy="25" r="2" class="red" fill="#CE1126"/>
  <circle cx="35" cy="25" r="2" class="red" fill="#CE1126"/>
  <circle cx="45" cy="25" r="2" class="red" fill="#CE1126"/>
  <circle cx="55" cy="25" r="2" fill="#000000"/>
  <circle cx="65" cy="25" r="2" fill="#000000"/>
  <circle cx="75" cy="25" r="2" fill="#000000"/>
  <circle cx="85" cy="25" r="2" fill="#000000"/>
  <circle cx="95" cy="25" r="2" fill="#000000"/>
  <circle cx="105" cy="25" r="2" fill="#000000"/>
  <circle cx="115" cy="25" r="2" fill="#000000"/>
  <circle cx="125" cy="25" r="2" fill="#000000"/>
  <circle cx="135" cy="25" r="2" fill="#000000"/>
  <circle cx="145" cy="25" r="2" fill="#000000"/>
  <circle cx="155" cy="25" r="2" fill="#000000"/>
  <circle cx="165" cy="25" r="2" fill="#000000"/>
  <circle cx="175" cy="25" r="2" fill="#000000"/>
  <circle cx="185" cy="25" r="2" fill="#000000"/>
  <circle cx="195" cy="25" r="2" fill="#000000"/>

  <!-- y = 35 (white stripe; red at x <= 70) -->
  <circle cx="5" cy="35" r="2" class="red" fill="#CE1126"/>
  <circle cx="15" cy="35" r="2" class="red" fill="#CE1126"/>
  <circle cx="25" cy="35" r="2" class="red" fill="#CE1126"/>
  <circle cx="35" cy="35" r="2" class="red" fill="#CE1126"/>
  <circle cx="45" cy="35" r="2" class="red" fill="#CE1126"/>
  <circle cx="55" cy="35" r="2" class="red" fill="#CE1126"/>
  <circle cx="65" cy="35" r="2" class="red" fill="#CE1126"/>
  <circle cx="75" cy="35" r="2" fill="#ffffff"/>
  <circle cx="85" cy="35" r="2" fill="#ffffff"/>
  <circle cx="95" cy="35" r="2" fill="#ffffff"/>
  <circle cx="105" cy="35" r="2" fill="#ffffff"/>
  <circle cx="115" cy="35" r="2" fill="#ffffff"/>
  <circle cx="125" cy="35" r="2" fill="#ffffff"/>
  <circle cx="135" cy="35" r="2" fill="#ffffff"/>
  <circle cx="145" cy="35" r="2" fill="#ffffff"/>
  <circle cx="155" cy="35" r="2" fill="#ffffff"/>
  <circle cx="165" cy="35" r="2" fill="#ffffff"/>
  <circle cx="175" cy="35" r="2" fill="#ffffff"/>
  <circle cx="185" cy="35" r="2" fill="#ffffff"/>
  <circle cx="195" cy="35" r="2" fill="#ffffff"/>

  <!-- y = 45 (white stripe; red at x <= 90) -->
  <circle cx="5" cy="45" r="2" class="red" fill="#CE1126"/>
  <circle cx="15" cy="45" r="2" class="red" fill="#CE1126"/>
  <circle cx="25" cy="45" r="2" class="red" fill="#CE1126"/>
  <circle cx="35" cy="45" r="2" class="red" fill="#CE1126"/>
  <circle cx="45" cy="45" r="2" class="red" fill="#CE1126"/>
  <circle cx="55" cy="45" r="2" class="red" fill="#CE1126"/>
  <circle cx="65" cy="45" r="2" class="red" fill="#CE1126"/>
  <circle cx="75" cy="45" r="2" class="red" fill="#CE1126"/>
  <circle cx="85" cy="45" r="2" class="red" fill="#CE1126"/>
  <circle cx="95" cy="45" r="2" fill="#ffffff"/>
  <circle cx="105" cy="45" r="2" fill="#ffffff"/>
  <circle cx="115" cy="45" r="2" fill="#ffffff"/>
  <circle cx="125" cy="45" r="2" fill="#ffffff"/>
  <circle cx="135" cy="45" r="2" fill="#ffffff"/>
  <circle cx="145" cy="45" r="2" fill="#ffffff"/>
  <circle cx="155" cy="45" r="2" fill="#ffffff"/>
  <circle cx="165" cy="45" r="2" fill="#ffffff"/>
  <circle cx="175" cy="45" r="2" fill="#ffffff"/>
  <circle cx="185" cy="45" r="2" fill="#ffffff"/>
  <circle cx="195" cy="45" r="2" fill="#ffffff"/>

  <!-- y = 55 (white stripe; red at x <= 90) -->
  <circle cx="5" cy="55" r="2" class="red" fill="#CE1126"/>
  <circle cx="15" cy="55" r="2" class="red" fill="#CE1126"/>
  <circle cx="25" cy="55" r="2" class="red" fill="#CE1126"/>
  <circle cx="35" cy="55" r="2" class="red" fill="#CE1126"/>
  <circle cx="45" cy="55" r="2" class="red" fill="#CE1126"/>
  <circle cx="55" cy="55" r="2" class="red" fill="#CE1126"/>
  <circle cx="65" cy="55" r="2" class="red" fill="#CE1126"/>
  <circle cx="75" cy="55" r="2" fill="#ffffff"/>
  <circle cx="85" cy="55" r="2" fill="#ffffff"/>
  <circle cx="95" cy="55" r="2" fill="#ffffff"/>
  <circle cx="105" cy="55" r="2" fill="#ffffff"/>
  <circle cx="115" cy="55" r="2" fill="#ffffff"/>
  <circle cx="125" cy="55" r="2" fill="#ffffff"/>
  <circle cx="135" cy="55" r="2" fill="#ffffff"/>
  <circle cx="145" cy="55" r="2" fill="#ffffff"/>
  <circle cx="155" cy="55" r="2" fill="#ffffff"/>
  <circle cx="165" cy="55" r="2" fill="#ffffff"/>
  <circle cx="175" cy="55" r="2" fill="#ffffff"/>
  <circle cx="185" cy="55" r="2" fill="#ffffff"/>
  <circle cx="195" cy="55" r="2" fill="#ffffff"/>

  <!-- y = 65 (green stripe; red at x <= 70) -->
  <circle cx="5" cy="65" r="2" class="red" fill="#CE1126"/>
  <circle cx="15" cy="65" r="2" class="red" fill="#CE1126"/>
  <circle cx="25" cy="65" r="2" class="red" fill="#CE1126"/>
  <circle cx="35" cy="65" r="2" class="red" fill="#CE1126"/>
  <circle cx="45" cy="65" r="2" class="red" fill="#CE1126"/>
  <circle cx="55" cy="65" r="2" class="red" fill="#CE1126"/>
  <circle cx="65" cy="65" r="2" class="red" fill="#CE1126"/>
  <circle cx="75" cy="65" r="2" fill="#007A3D"/>
  <circle cx="85" cy="65" r="2" fill="#007A3D"/>
  <circle cx="95" cy="65" r="2" fill="#007A3D"/>
  <circle cx="105" cy="65" r="2" fill="#007A3D"/>
  <circle cx="115" cy="65" r="2" fill="#007A3D"/>
  <circle cx="125" cy="65" r="2" fill="#007A3D"/>
  <circle cx="135" cy="65" r="2" fill="#007A3D"/>
  <circle cx="145" cy="65" r="2" fill="#007A3D"/>
  <circle cx="155" cy="65" r="2" fill="#007A3D"/>
  <circle cx="165" cy="65" r="2" fill="#007A3D"/>
  <circle cx="175" cy="65" r="2" fill="#007A3D"/>
  <circle cx="185" cy="65" r="2" fill="#007A3D"/>
  <circle cx="195" cy="65" r="2" fill="#007A3D"/>

  <!-- y = 75 (green stripe; red at x <= 50) -->
  <circle cx="5" cy="75" r="2" class="red" fill="#CE1126"/>
  <circle cx="15" cy="75" r="2" class="red" fill="#CE1126"/>
  <circle cx="25" cy="75" r="2" class="red" fill="#CE1126"/>
  <circle cx="35" cy="75" r="2" class="red" fill="#CE1126"/>
  <circle cx="45" cy="75" r="2" class="red" fill="#CE1126"/>
  <circle cx="55" cy="75" r="2" fill="#007A3D"/>
  <circle cx="65" cy="75" r="2" fill="#007A3D"/>
  <circle cx="75" cy="75" r="2" fill="#007A3D"/>
  <circle cx="85" cy="75" r="2" fill="#007A3D"/>
  <circle cx="95" cy="75" r="2" fill="#007A3D"/>
  <circle cx="105" cy="75" r="2" fill="#007A3D"/>
  <circle cx="115" cy="75" r="2" fill="#007A3D"/>
  <circle cx="125" cy="75" r="2" fill="#007A3D"/>
  <circle cx="135" cy="75" r="2" fill="#007A3D"/>
  <circle cx="145" cy="75" r="2" fill="#007A3D"/>
  <circle cx="155" cy="75" r="2" fill="#007A3D"/>
  <circle cx="165" cy="75" r="2" fill="#007A3D"/>
  <circle cx="175" cy="75" r="2" fill="#007A3D"/>
  <circle cx="185" cy="75" r="2" fill="#007A3D"/>
  <circle cx="195" cy="75" r="2" fill="#007A3D"/>

  <!-- y = 85 (green stripe; red at x <= 30) -->
  <circle cx="5" cy="85" r="2" class="red" fill="#CE1126"/>
  <circle cx="15" cy="85" r="2" class="red" fill="#CE1126"/>
  <circle cx="25" cy="85" r="2" class="red" fill="#CE1126"/>
  <circle cx="35" cy="85" r="2" fill="#007A3D"/>
  <circle cx="45" cy="85" r="2" fill="#007A3D"/>
  <circle cx="55" cy="85" r="2" fill="#007A3D"/>
  <circle cx="65" cy="85" r="2" fill="#007A3D"/>
  <circle cx="75" cy="85" r="2" fill="#007A3D"/>
  <circle cx="85" cy="85" r="2" fill="#007A3D"/>
  <circle cx="95" cy="85" r="2" fill="#007A3D"/>
  <circle cx="105" cy="85" r="2" fill="#007A3D"/>
  <circle cx="115" cy="85" r="2" fill="#007A3D"/>
  <circle cx="125" cy="85" r="2" fill="#007A3D"/>
  <circle cx="135" cy="85" r="2" fill="#007A3D"/>
  <circle cx="145" cy="85" r="2" fill="#007A3D"/>
  <circle cx="155" cy="85" r="2" fill="#007A3D"/>
  <circle cx="165" cy="85" r="2" fill="#007A3D"/>
  <circle cx="175" cy="85" r="2" fill="#007A3D"/>
  <circle cx="185" cy="85" r="2" fill="#007A3D"/>
  <circle cx="195" cy="85" r="2" fill="#007A3D"/>

  
</svg>


